<?xml version="1.0" encoding="utf-8"?>
<!-- Generator: Adobe Illustrator 23.0.3, SVG Export Plug-In . SVG Version: 6.00 Build 0)  -->
<svg version="1.1" id="Layer_1" xmlns="http://www.w3.org/2000/svg" xmlns:xlink="http://www.w3.org/1999/xlink" x="0px" y="0px"
	 viewBox="0 0 438 117" style="enable-background:new 0 0 438 117;" xml:space="preserve">
<style type="text/css">
	.st0{fill:#231F20;}
</style>
<g>
	<g>
		<path class="st0" d="M25.34,46.43H12.05v18.36H8.39V15.55h17.87c10.83,0,18.29,5.56,18.29,15.05v0.14
			C44.54,41.09,35.61,46.43,25.34,46.43z M40.88,30.82c0-7.81-6.05-11.89-14.91-11.89H12.05v24.13h13.51
			c9.14,0,15.33-4.78,15.33-12.1V30.82z"/>
		<path class="st0" d="M67.54,62.4c5.56,0,9.35-2.46,12.31-5.63l2.39,2.11c-3.66,3.94-7.95,6.75-14.84,6.75
			c-9.43,0-17.58-7.53-17.58-18.71v-0.14c0-10.41,7.32-18.71,17.02-18.71c10.06,0,16.46,8.16,16.46,18.78v0.14
			c0,0.49,0,0.7-0.07,1.27H53.48C54.11,57.19,60.51,62.4,67.54,62.4z M79.57,45.17c-0.49-7.25-4.64-13.93-12.87-13.93
			c-7.1,0-12.59,5.98-13.22,13.93H79.57z"/>
		<path class="st0" d="M110.38,32.15c-8.3,0-15.54,6.26-15.54,17.94v14.7h-3.45V28.92h3.45v10.2c2.81-6.4,8.79-11.04,15.9-10.76v3.8
			H110.38z"/>
		<path class="st0" d="M130.35,16.4c-4.92,0-7.25,2.95-7.25,9.07v3.45h12.52v3.17h-12.52v32.71h-3.45V32.08h-5.2v-3.17h5.2V25.4
			c0-7.74,3.94-12.17,10.69-12.17c2.18,0,3.73,0.28,5.35,0.84v3.24C133.66,16.68,132.18,16.4,130.35,16.4z"/>
		<path class="st0" d="M167.63,64.79v-6.68c-2.39,4.22-6.4,7.53-12.94,7.53c-9.07,0-14.35-6.19-14.35-14.77V28.92h3.45v21.31
			c0,7.38,4.15,12.24,11.39,12.24c7.03,0,12.45-5.35,12.45-12.8V28.92h3.45v35.87H167.63z"/>
		<path class="st0" d="M232.98,64.79V43.48c0-7.74-4.01-12.24-10.62-12.24c-6.05,0-11.32,4.64-11.32,12.66v20.89h-3.45V43.27
			c0-7.46-4.08-12.03-10.48-12.03c-6.4,0-11.46,5.63-11.46,12.87v20.68h-3.45V28.92h3.45v6.4c2.32-3.73,5.56-7.24,11.96-7.24
			c6.26,0,10.13,3.59,12.1,7.74c2.32-4.01,6.19-7.74,12.94-7.74c8.51,0,13.79,5.98,13.79,14.98v21.73H232.98z"/>
		<path class="st0" d="M262.38,62.4c5.56,0,9.35-2.46,12.31-5.63l2.39,2.11c-3.66,3.94-7.95,6.75-14.84,6.75
			c-9.43,0-17.58-7.53-17.58-18.71v-0.14c0-10.41,7.32-18.71,17.02-18.71c10.06,0,16.46,8.16,16.46,18.78v0.14
			c0,0.49,0,0.7-0.07,1.27h-29.75C248.94,57.19,255.34,62.4,262.38,62.4z M274.4,45.17c-0.49-7.25-4.64-13.93-12.87-13.93
			c-7.1,0-12.59,5.98-13.22,13.93H274.4z"/>
		<path class="st0" d="M284.74,64.79v-5.98h4.64v5.98H284.74z"/>
		<path class="st0" d="M314.14,65.63c-10.34,0-18.29-8.58-18.29-18.64v-0.14c0-10.06,8.02-18.78,18.29-18.78
			c6.75,0,10.97,3.09,14.35,6.61l-2.46,2.53c-3.09-3.16-6.61-5.91-11.96-5.91c-8.16,0-14.49,6.82-14.49,15.4v0.14
			c0,8.65,6.54,15.54,14.77,15.54c5.06,0,9-2.6,12.03-5.98l2.39,2.11C325.12,62.68,320.76,65.63,314.14,65.63z"/>
		<path class="st0" d="M351.35,65.63c-10.62,0-18.36-8.58-18.36-18.64v-0.14c0-10.06,7.81-18.78,18.5-18.78
			c10.62,0,18.36,8.58,18.36,18.64v0.14C369.85,56.91,362.04,65.63,351.35,65.63z M366.12,46.85c0-8.65-6.47-15.54-14.77-15.54
			c-8.51,0-14.63,6.96-14.63,15.4v0.14c0,8.65,6.47,15.54,14.77,15.54c8.51,0,14.63-6.96,14.63-15.4V46.85z"/>
		<path class="st0" d="M429.29,64.79V43.48c0-7.74-4.01-12.24-10.62-12.24c-6.05,0-11.32,4.64-11.32,12.66v20.89h-3.45V43.27
			c0-7.46-4.08-12.03-10.48-12.03c-6.4,0-11.47,5.63-11.47,12.87v20.68h-3.45V28.92h3.45v6.4c2.32-3.73,5.56-7.24,11.96-7.24
			c6.26,0,10.13,3.59,12.1,7.74c2.32-4.01,6.19-7.74,12.94-7.74c8.51,0,13.79,5.98,13.79,14.98v21.73H429.29z"/>
	</g>
	<g>
		<path class="st0" d="M216.89,84.73h-6.42l0.34-1.26h14.19l-0.34,1.26h-6.41l-4.6,17.14h-1.37L216.89,84.73z"/>
		<path class="st0" d="M226.46,88.46h1.29l-1,3.81c0.44-0.61,0.91-1.18,1.42-1.7c0.51-0.52,1.05-0.95,1.62-1.3
			c0.57-0.35,1.17-0.62,1.81-0.8c0.64-0.18,1.32-0.26,2.04-0.22l-0.37,1.42h-0.11c-0.77,0-1.55,0.15-2.33,0.45
			c-0.78,0.3-1.51,0.73-2.18,1.3c-0.68,0.57-1.27,1.27-1.8,2.1c-0.52,0.83-0.93,1.78-1.21,2.85l-1.47,5.49h-1.29L226.46,88.46z"/>
		<path class="st0" d="M237.97,102.19c-1.33,0-2.4-0.39-3.19-1.16c-0.8-0.77-1.2-1.8-1.2-3.1c0-0.3,0.03-0.61,0.08-0.93
			c0.05-0.33,0.12-0.64,0.21-0.96l2-7.57h1.29l-2.05,7.68c-0.07,0.25-0.12,0.52-0.16,0.83c-0.04,0.31-0.05,0.59-0.05,0.83
			c0,1,0.31,1.79,0.92,2.37c0.61,0.58,1.45,0.87,2.52,0.87c0.58,0,1.16-0.12,1.74-0.37c0.58-0.24,1.12-0.59,1.63-1.04
			c0.51-0.45,0.96-0.97,1.35-1.58c0.39-0.6,0.69-1.27,0.88-2.01l2.02-7.57h1.29l-3.58,13.41h-1.29l0.66-2.5
			c-0.33,0.41-0.68,0.78-1.04,1.12c-0.36,0.34-0.74,0.63-1.14,0.88c-0.4,0.24-0.85,0.44-1.33,0.59
			C239.05,102.11,238.53,102.19,237.97,102.19z"/>
		<path class="st0" d="M252.85,102.16c-1.05,0-2.07-0.2-3.05-0.59c-0.98-0.4-1.86-0.98-2.63-1.75l0.92-0.92
			c0.74,0.72,1.51,1.24,2.34,1.56c0.82,0.33,1.68,0.49,2.58,0.49c0.42,0,0.84-0.06,1.26-0.18c0.42-0.12,0.79-0.3,1.12-0.54
			c0.32-0.24,0.59-0.52,0.79-0.84c0.2-0.32,0.3-0.69,0.3-1.09c0-0.26-0.04-0.51-0.13-0.73c-0.09-0.23-0.24-0.45-0.46-0.66
			c-0.22-0.21-0.51-0.42-0.89-0.63c-0.37-0.21-0.85-0.42-1.43-0.63c-1.27-0.47-2.22-0.97-2.83-1.5c-0.61-0.52-0.92-1.22-0.92-2.1
			c0-0.53,0.12-1.02,0.36-1.5c0.24-0.47,0.58-0.89,1.01-1.25c0.43-0.36,0.96-0.64,1.57-0.84c0.61-0.2,1.3-0.3,2.05-0.3
			c0.95,0,1.85,0.18,2.71,0.55c0.86,0.37,1.57,0.79,2.13,1.27l-0.84,0.97c-0.51-0.42-1.13-0.79-1.85-1.1
			c-0.73-0.32-1.49-0.47-2.27-0.47c-0.56,0-1.06,0.07-1.5,0.21c-0.44,0.14-0.8,0.33-1.09,0.56c-0.29,0.24-0.51,0.5-0.66,0.8
			c-0.15,0.3-0.22,0.61-0.22,0.92c0,0.26,0.04,0.5,0.12,0.71c0.08,0.21,0.23,0.42,0.46,0.62c0.23,0.2,0.53,0.41,0.92,0.62
			c0.38,0.21,0.89,0.44,1.52,0.68c0.66,0.26,1.23,0.52,1.69,0.79c0.46,0.26,0.84,0.54,1.13,0.83c0.29,0.29,0.5,0.6,0.63,0.92
			c0.13,0.32,0.2,0.69,0.2,1.09c0,0.58-0.13,1.12-0.4,1.61c-0.27,0.5-0.63,0.93-1.09,1.28c-0.46,0.36-0.99,0.64-1.6,0.84
			C254.18,102.06,253.53,102.16,252.85,102.16z"/>
		<path class="st0" d="M264.86,102.11c-0.89,0-1.65-0.21-2.27-0.63c-0.62-0.42-0.93-1.09-0.93-2.02c0-0.21,0.02-0.43,0.05-0.67
			c0.03-0.24,0.07-0.44,0.11-0.62l2.29-8.5h-1.95l0.32-1.21h1.94l1.16-4.28h1.29l-1.16,4.28h4.63l-0.31,1.21h-4.63l-2.29,8.5
			c-0.03,0.17-0.07,0.37-0.09,0.58c-0.03,0.21-0.04,0.39-0.04,0.55c0,0.56,0.2,0.96,0.59,1.22c0.39,0.25,0.92,0.38,1.59,0.38
			c0.56,0,1.21-0.13,1.94-0.39l-0.34,1.26c-0.35,0.14-0.67,0.23-0.95,0.28C265.53,102.08,265.21,102.11,264.86,102.11z"/>
		<path class="st0" d="M271.88,95.61c-0.02,0.14-0.03,0.29-0.04,0.45c-0.01,0.16-0.01,0.31-0.01,0.45c0,0.69,0.11,1.3,0.33,1.84
			c0.22,0.54,0.52,1.01,0.91,1.41c0.39,0.4,0.85,0.7,1.39,0.91c0.54,0.21,1.15,0.32,1.81,0.32c1.02,0,1.87-0.17,2.56-0.5
			c0.69-0.33,1.36-0.76,2.01-1.29l0.76,0.92c-0.7,0.58-1.46,1.07-2.29,1.47c-0.82,0.4-1.84,0.6-3.05,0.6
			c-0.86,0-1.64-0.14-2.35-0.41c-0.71-0.27-1.32-0.66-1.84-1.16c-0.52-0.5-0.92-1.1-1.21-1.79c-0.29-0.69-0.43-1.45-0.43-2.27
			c0-1.05,0.2-2.08,0.59-3.09c0.39-1.01,0.94-1.91,1.64-2.7c0.7-0.79,1.52-1.42,2.47-1.91c0.95-0.48,1.96-0.72,3.05-0.72
			c0.84,0,1.58,0.14,2.21,0.41c0.63,0.27,1.16,0.65,1.59,1.12c0.43,0.47,0.75,1.02,0.96,1.64c0.21,0.62,0.32,1.28,0.32,1.96
			c0,0.86-0.12,1.64-0.37,2.34H271.88z M281.85,94.46c0.03-0.12,0.06-0.27,0.08-0.46c0.02-0.18,0.03-0.4,0.03-0.64
			c0-0.54-0.07-1.05-0.22-1.53c-0.15-0.48-0.38-0.9-0.7-1.27c-0.32-0.37-0.71-0.66-1.18-0.88c-0.47-0.22-1.03-0.33-1.68-0.33
			c-0.75,0-1.46,0.14-2.1,0.41c-0.65,0.27-1.23,0.64-1.76,1.11c-0.52,0.47-0.97,1.02-1.34,1.64c-0.37,0.62-0.65,1.27-0.84,1.95
			H281.85z"/>
		<path class="st0" d="M290.52,102.21c-0.77,0-1.49-0.14-2.14-0.42c-0.66-0.28-1.23-0.67-1.71-1.17c-0.48-0.5-0.86-1.1-1.13-1.79
			c-0.27-0.69-0.41-1.45-0.41-2.27c0-1.19,0.21-2.3,0.62-3.33c0.41-1.02,0.97-1.91,1.67-2.67c0.7-0.75,1.51-1.35,2.42-1.78
			c0.91-0.43,1.87-0.64,2.86-0.64c0.75,0,1.42,0.11,2.01,0.32c0.59,0.21,1.09,0.49,1.52,0.84c0.43,0.35,0.79,0.75,1.09,1.21
			c0.3,0.45,0.54,0.92,0.71,1.39l2.47-9.23h1.29l-5.13,19.19h-1.29l0.68-2.6c-0.67,0.81-1.46,1.5-2.38,2.08
			C292.77,101.92,291.71,102.21,290.52,102.21z M290.68,101c0.84,0,1.66-0.2,2.46-0.59c0.8-0.4,1.51-0.91,2.14-1.55
			c0.63-0.64,1.14-1.38,1.52-2.22c0.38-0.84,0.58-1.71,0.58-2.6c0-0.65-0.11-1.26-0.33-1.83c-0.22-0.57-0.53-1.07-0.95-1.49
			c-0.41-0.42-0.9-0.75-1.47-1c-0.57-0.24-1.2-0.37-1.88-0.37c-0.91,0-1.75,0.19-2.51,0.58c-0.76,0.39-1.42,0.9-1.97,1.55
			c-0.55,0.65-0.98,1.4-1.29,2.25c-0.31,0.85-0.46,1.74-0.46,2.67c0,0.69,0.1,1.31,0.3,1.88c0.2,0.57,0.49,1.06,0.85,1.46
			c0.37,0.4,0.81,0.71,1.31,0.93C289.5,100.89,290.06,101,290.68,101z"/>
		<path class="st0" d="M312.99,102.16c-1.05,0-2.07-0.2-3.05-0.59c-0.98-0.4-1.86-0.98-2.63-1.75l0.92-0.92
			c0.74,0.72,1.51,1.24,2.34,1.56c0.82,0.33,1.68,0.49,2.58,0.49c0.42,0,0.84-0.06,1.26-0.18c0.42-0.12,0.79-0.3,1.12-0.54
			c0.32-0.24,0.59-0.52,0.79-0.84c0.2-0.32,0.3-0.69,0.3-1.09c0-0.26-0.04-0.51-0.13-0.73c-0.09-0.23-0.24-0.45-0.46-0.66
			c-0.22-0.21-0.51-0.42-0.89-0.63c-0.37-0.21-0.85-0.42-1.43-0.63c-1.27-0.47-2.22-0.97-2.83-1.5c-0.61-0.52-0.92-1.22-0.92-2.1
			c0-0.53,0.12-1.02,0.36-1.5c0.24-0.47,0.58-0.89,1.01-1.25c0.43-0.36,0.96-0.64,1.57-0.84c0.61-0.2,1.3-0.3,2.05-0.3
			c0.95,0,1.85,0.18,2.71,0.55c0.86,0.37,1.57,0.79,2.13,1.27l-0.84,0.97c-0.51-0.42-1.13-0.79-1.85-1.1
			c-0.73-0.32-1.49-0.47-2.27-0.47c-0.56,0-1.06,0.07-1.5,0.21c-0.44,0.14-0.8,0.33-1.09,0.56c-0.29,0.24-0.51,0.5-0.66,0.8
			c-0.15,0.3-0.22,0.61-0.22,0.92c0,0.26,0.04,0.5,0.12,0.71c0.08,0.21,0.23,0.42,0.46,0.62c0.23,0.2,0.53,0.41,0.92,0.62
			c0.38,0.21,0.89,0.44,1.52,0.68c0.66,0.26,1.23,0.52,1.69,0.79c0.46,0.26,0.84,0.54,1.13,0.83c0.29,0.29,0.5,0.6,0.63,0.92
			c0.13,0.32,0.2,0.69,0.2,1.09c0,0.58-0.13,1.12-0.4,1.61c-0.27,0.5-0.63,0.93-1.09,1.28c-0.46,0.36-0.99,0.64-1.6,0.84
			C314.32,102.06,313.68,102.16,312.99,102.16z"/>
		<path class="st0" d="M324.04,88.46h1.29l-3.6,13.41h-1.29L324.04,88.46z M325.3,83.2h1.6l-0.47,1.76h-1.6L325.3,83.2z"/>
		<path class="st0" d="M329.66,88.46h1.29l-0.66,2.5c0.33-0.39,0.68-0.75,1.04-1.1c0.36-0.35,0.74-0.65,1.14-0.9
			c0.4-0.25,0.84-0.44,1.33-0.59c0.48-0.15,1-0.23,1.56-0.23c1.33,0,2.4,0.39,3.19,1.16c0.8,0.77,1.2,1.8,1.2,3.1
			c0,0.3-0.03,0.61-0.08,0.93c-0.05,0.33-0.12,0.64-0.21,0.96l-2,7.57h-1.29l2.05-7.68c0.07-0.24,0.12-0.52,0.16-0.83
			c0.03-0.31,0.05-0.58,0.05-0.83c0-1-0.31-1.79-0.92-2.37c-0.61-0.58-1.46-0.87-2.52-0.87c-0.58,0-1.16,0.12-1.74,0.37
			s-1.12,0.59-1.63,1.04c-0.51,0.45-0.96,0.97-1.35,1.58c-0.4,0.6-0.69,1.27-0.88,2.01l-2.02,7.57h-1.29L329.66,88.46z"/>
		<path class="st0" d="M347.9,102.19c-0.74,0-1.46-0.13-2.16-0.38c-0.7-0.25-1.32-0.63-1.87-1.13c-0.54-0.5-0.98-1.1-1.31-1.81
			c-0.33-0.71-0.5-1.53-0.5-2.46c0-1.1,0.21-2.15,0.63-3.14c0.42-0.99,0.99-1.87,1.72-2.63c0.73-0.76,1.57-1.37,2.52-1.82
			c0.95-0.45,1.96-0.67,3.01-0.67c0.68,0,1.31,0.09,1.87,0.26c0.56,0.17,1.06,0.42,1.49,0.72c0.43,0.31,0.8,0.65,1.12,1.04
			c0.31,0.39,0.58,0.79,0.79,1.21l-1.08,0.61c-0.21-0.35-0.44-0.69-0.7-1.01c-0.25-0.32-0.55-0.61-0.89-0.84
			c-0.34-0.24-0.73-0.42-1.17-0.56c-0.44-0.14-0.94-0.21-1.5-0.21c-0.86,0-1.67,0.19-2.45,0.56c-0.77,0.38-1.45,0.89-2.04,1.54
			c-0.59,0.65-1.06,1.39-1.41,2.24c-0.35,0.84-0.53,1.72-0.53,2.63c0,0.75,0.13,1.42,0.38,2c0.25,0.58,0.59,1.07,1.01,1.46
			c0.42,0.4,0.9,0.69,1.45,0.89c0.54,0.2,1.1,0.3,1.68,0.3c0.88,0,1.66-0.17,2.37-0.53c0.7-0.35,1.36-0.81,1.97-1.39l0.87,0.84
			c-0.68,0.67-1.46,1.21-2.33,1.64C349.99,101.97,349.01,102.19,347.9,102.19z"/>
		<path class="st0" d="M357.58,95.61c-0.02,0.14-0.03,0.29-0.04,0.45c-0.01,0.16-0.01,0.31-0.01,0.45c0,0.69,0.11,1.3,0.33,1.84
			c0.22,0.54,0.52,1.01,0.91,1.41c0.39,0.4,0.85,0.7,1.39,0.91c0.54,0.21,1.15,0.32,1.81,0.32c1.02,0,1.87-0.17,2.56-0.5
			c0.69-0.33,1.36-0.76,2.01-1.29l0.76,0.92c-0.7,0.58-1.46,1.07-2.29,1.47c-0.82,0.4-1.84,0.6-3.05,0.6
			c-0.86,0-1.64-0.14-2.35-0.41c-0.71-0.27-1.32-0.66-1.84-1.16c-0.52-0.5-0.92-1.1-1.21-1.79c-0.29-0.69-0.43-1.45-0.43-2.27
			c0-1.05,0.2-2.08,0.59-3.09c0.39-1.01,0.94-1.91,1.64-2.7c0.7-0.79,1.52-1.42,2.47-1.91c0.95-0.48,1.96-0.72,3.05-0.72
			c0.84,0,1.58,0.14,2.21,0.41c0.63,0.27,1.16,0.65,1.59,1.12c0.43,0.47,0.75,1.02,0.96,1.64c0.21,0.62,0.32,1.28,0.32,1.96
			c0,0.86-0.12,1.64-0.37,2.34H357.58z M367.54,94.46c0.04-0.12,0.06-0.27,0.08-0.46c0.02-0.18,0.03-0.4,0.03-0.64
			c0-0.54-0.07-1.05-0.22-1.53c-0.15-0.48-0.38-0.9-0.7-1.27c-0.31-0.37-0.71-0.66-1.18-0.88c-0.47-0.22-1.03-0.33-1.68-0.33
			c-0.75,0-1.45,0.14-2.1,0.41c-0.65,0.27-1.24,0.64-1.76,1.11c-0.53,0.47-0.97,1.02-1.34,1.64c-0.37,0.62-0.65,1.27-0.84,1.95
			H367.54z"/>
		<path class="st0" d="M383.55,84.91l-3.86,1.21l-0.05-1.23l4.63-1.55h1.08l-4.97,18.53H379L383.55,84.91z"/>
		<path class="st0" d="M390.99,102.21c-1.17,0-2.23-0.23-3.16-0.7c-0.93-0.46-1.72-1.09-2.37-1.88l1-0.87
			c0.61,0.68,1.28,1.23,2.01,1.63c0.73,0.4,1.59,0.6,2.59,0.6c1.72,0,3.29-0.72,4.73-2.16c0.84-0.84,1.56-1.88,2.16-3.11
			c0.6-1.23,0.95-2.5,1.05-3.82c-0.26,0.39-0.57,0.77-0.93,1.16c-0.36,0.38-0.78,0.73-1.25,1.04c-0.47,0.31-1.01,0.56-1.6,0.75
			c-0.6,0.19-1.26,0.29-2,0.29c-0.93,0-1.76-0.15-2.5-0.45c-0.74-0.3-1.35-0.7-1.85-1.21c-0.5-0.51-0.88-1.09-1.13-1.75
			c-0.25-0.66-0.38-1.35-0.38-2.06c0-0.86,0.18-1.68,0.54-2.47c0.36-0.79,0.85-1.48,1.47-2.08c0.62-0.6,1.36-1.07,2.22-1.42
			c0.86-0.35,1.8-0.53,2.81-0.53c0.89,0,1.71,0.15,2.46,0.46c0.74,0.31,1.37,0.72,1.88,1.22c0.56,0.56,1,1.25,1.31,2.06
			c0.32,0.82,0.47,1.82,0.47,3.01c0,1.02-0.09,1.99-0.28,2.93c-0.18,0.94-0.44,1.81-0.78,2.63c-0.33,0.81-0.72,1.57-1.17,2.26
			c-0.45,0.69-0.93,1.3-1.46,1.83c-0.88,0.88-1.8,1.54-2.76,1.97C393.13,101.99,392.09,102.21,390.99,102.21z M393.39,93.88
			c0.81,0,1.55-0.14,2.24-0.43c0.69-0.29,1.28-0.67,1.78-1.16c0.5-0.48,0.89-1.03,1.16-1.66c0.27-0.62,0.41-1.26,0.41-1.91
			c0-1.21-0.4-2.22-1.21-3.02c-0.46-0.45-0.98-0.79-1.58-1c-0.6-0.21-1.23-0.32-1.9-0.32c-0.81,0-1.55,0.14-2.23,0.43
			c-0.68,0.29-1.26,0.68-1.74,1.16c-0.48,0.48-0.87,1.04-1.15,1.68c-0.28,0.64-0.42,1.31-0.42,2.01c0,0.51,0.09,1.01,0.26,1.51
			c0.18,0.5,0.45,0.95,0.83,1.35c0.38,0.4,0.86,0.73,1.44,0.97C391.86,93.76,392.57,93.88,393.39,93.88z"/>
		<path class="st0" d="M407.08,102.21c-1.17,0-2.23-0.23-3.16-0.7c-0.93-0.46-1.72-1.09-2.37-1.88l1-0.87
			c0.61,0.68,1.28,1.23,2.01,1.63c0.73,0.4,1.59,0.6,2.59,0.6c1.72,0,3.3-0.72,4.73-2.16c0.84-0.84,1.56-1.88,2.16-3.11
			c0.6-1.23,0.95-2.5,1.05-3.82c-0.26,0.39-0.57,0.77-0.93,1.16c-0.36,0.38-0.78,0.73-1.25,1.04c-0.47,0.31-1.01,0.56-1.6,0.75
			c-0.6,0.19-1.26,0.29-2,0.29c-0.93,0-1.76-0.15-2.5-0.45c-0.74-0.3-1.35-0.7-1.85-1.21c-0.5-0.51-0.88-1.09-1.13-1.75
			c-0.25-0.66-0.38-1.35-0.38-2.06c0-0.86,0.18-1.68,0.54-2.47c0.36-0.79,0.85-1.48,1.47-2.08c0.62-0.6,1.36-1.07,2.22-1.42
			c0.86-0.35,1.8-0.53,2.81-0.53c0.89,0,1.71,0.15,2.46,0.46c0.74,0.31,1.37,0.72,1.88,1.22c0.56,0.56,1,1.25,1.31,2.06
			c0.32,0.82,0.47,1.82,0.47,3.01c0,1.02-0.09,1.99-0.28,2.93c-0.18,0.94-0.44,1.81-0.78,2.63c-0.33,0.81-0.72,1.57-1.17,2.26
			c-0.45,0.69-0.93,1.3-1.46,1.83c-0.88,0.88-1.8,1.54-2.76,1.97C409.21,101.99,408.18,102.21,407.08,102.21z M409.48,93.88
			c0.81,0,1.55-0.14,2.24-0.43c0.69-0.29,1.28-0.67,1.78-1.16c0.5-0.48,0.89-1.03,1.16-1.66c0.27-0.62,0.41-1.26,0.41-1.91
			c0-1.21-0.4-2.22-1.21-3.02c-0.46-0.45-0.98-0.79-1.58-1c-0.6-0.21-1.23-0.32-1.9-0.32c-0.81,0-1.55,0.14-2.23,0.43
			c-0.68,0.29-1.26,0.68-1.74,1.16c-0.48,0.48-0.87,1.04-1.15,1.68c-0.28,0.64-0.42,1.31-0.42,2.01c0,0.51,0.09,1.01,0.26,1.51
			c0.18,0.5,0.45,0.95,0.83,1.35c0.38,0.4,0.86,0.73,1.44,0.97S408.65,93.88,409.48,93.88z"/>
		<path class="st0" d="M423.4,102.19c-0.79,0-1.5-0.09-2.13-0.27c-0.63-0.18-1.2-0.42-1.71-0.72c-0.51-0.3-0.96-0.65-1.34-1.04
			c-0.39-0.4-0.73-0.82-1.02-1.28l1.13-0.71c0.58,0.86,1.28,1.54,2.1,2.05c0.82,0.51,1.84,0.76,3.05,0.76
			c0.89,0,1.71-0.14,2.45-0.43c0.74-0.29,1.36-0.67,1.88-1.14c0.52-0.47,0.92-1.02,1.2-1.64c0.28-0.62,0.42-1.26,0.42-1.93
			c0-0.63-0.11-1.19-0.34-1.68c-0.23-0.49-0.54-0.9-0.93-1.23c-0.4-0.33-0.86-0.59-1.39-0.76c-0.53-0.17-1.12-0.26-1.75-0.26
			c-0.63,0-1.31,0.09-2.04,0.28c-0.73,0.18-1.46,0.48-2.19,0.88l-0.87-0.68l2.92-8.91h9.91l-0.37,1.31h-8.7l-2.26,6.76
			c0.19-0.1,0.44-0.21,0.74-0.31c0.3-0.1,0.61-0.19,0.95-0.27c0.33-0.08,0.67-0.14,1.01-0.2c0.34-0.05,0.64-0.08,0.91-0.08
			c0.89,0,1.7,0.12,2.42,0.35c0.72,0.24,1.33,0.58,1.84,1.02c0.5,0.44,0.89,0.98,1.16,1.61c0.27,0.63,0.4,1.34,0.4,2.13
			c0,0.85-0.18,1.67-0.53,2.44c-0.35,0.77-0.85,1.45-1.5,2.03c-0.65,0.59-1.43,1.05-2.34,1.39
			C425.54,102.02,424.52,102.19,423.4,102.19z"/>
	</g>
</g>
</svg>
